<svg width="438.576" height="38.592" viewBox="0 0 438.576 38.592" xmlns="http://www.w3.org/2000/svg"><g id="svgGroup" stroke-linecap="round" fill-rule="evenodd" font-size="9pt" stroke="#222141" stroke-width="0.25mm" fill="#222141" style="stroke:#222141;stroke-width:0.25mm;fill:#222141"><path d="M 170.016 31.488 L 173.376 25.2 Q 170.352 27.799 165.933 29.886 A 45.377 45.377 0 0 1 165.792 29.952 Q 162.912 31.344 159.696 32.208 Q 156.48 33.072 153.504 33.072 A 18.036 18.036 0 0 1 150.35 32.814 Q 147.375 32.285 145.44 30.672 A 7.73 7.73 0 0 1 142.585 25.061 A 10.2 10.2 0 0 1 142.56 24.336 A 13.903 13.903 0 0 1 144.26 17.864 Q 146.445 13.674 151.44 9.408 A 34.646 34.646 0 0 1 154.603 7.044 A 41.521 41.521 0 0 1 156.336 5.952 Q 159.072 4.32 162.096 3.096 Q 165.12 1.872 168.144 1.176 A 28.073 28.073 0 0 1 171.44 0.613 A 22.627 22.627 0 0 1 173.856 0.48 Q 176.112 0.48 178.104 1.104 Q 180.096 1.728 181.368 2.904 A 3.862 3.862 0 0 1 182.43 4.495 A 4.013 4.013 0 0 1 182.64 5.808 A 4.568 4.568 0 0 1 182.186 7.765 A 6.125 6.125 0 0 1 181.68 8.64 A 10.061 10.061 0 0 1 179.886 10.603 A 11.946 11.946 0 0 1 179.208 11.136 Q 177.696 12.24 175.944 12.912 A 10.407 10.407 0 0 1 174.037 13.451 A 8.44 8.44 0 0 1 172.56 13.584 A 5.822 5.822 0 0 1 170.747 13.326 Q 168.874 12.712 168.323 10.644 A 7.461 7.461 0 0 1 168.096 8.88 A 11.766 11.766 0 0 1 168.089 8.657 Q 168.062 7.347 168.365 6.825 A 0.611 0.611 0 0 1 168.912 6.48 A 0.526 0.526 0 0 1 169.402 6.808 Q 169.633 7.266 169.551 8.364 A 9.861 9.861 0 0 1 169.536 8.544 Q 169.148 11.728 171.554 12.336 A 5.293 5.293 0 0 0 172.848 12.48 Q 174.144 12.48 175.632 12 Q 177.12 11.52 178.392 10.656 A 9.898 9.898 0 0 0 179.679 9.623 A 8.003 8.003 0 0 0 180.48 8.736 A 4.185 4.185 0 0 0 181.038 7.794 A 3.253 3.253 0 0 0 181.296 6.528 A 3.255 3.255 0 0 0 181.102 5.383 A 2.867 2.867 0 0 0 180.264 4.2 A 5.797 5.797 0 0 0 178.921 3.345 A 7.958 7.958 0 0 0 177.624 2.88 A 12.784 12.784 0 0 0 174.98 2.469 A 14.829 14.829 0 0 0 174.192 2.448 A 26.134 26.134 0 0 0 166.675 3.578 A 29.264 29.264 0 0 0 166.368 3.672 Q 162.432 4.896 158.784 7.08 Q 155.136 9.264 152.16 12.144 A 36.161 36.161 0 0 0 148.998 15.636 Q 145.296 20.356 145.296 24.48 A 7.208 7.208 0 0 0 145.745 27.072 A 6.398 6.398 0 0 0 147.816 29.832 Q 150.203 31.719 153.99 31.819 A 16.217 16.217 0 0 0 154.416 31.824 Q 157.68 31.824 161.088 30.576 Q 164.496 29.328 167.568 27.552 A 44.411 44.411 0 0 0 171.65 24.978 Q 173.597 23.586 175.093 22.132 A 21.159 21.159 0 0 0 176.928 20.112 L 178.32 18.048 Q 177.808 18.048 176.504 18.145 A 109.157 109.157 0 0 0 175.896 18.192 Q 174.096 18.336 171.024 18.576 Q 167.808 18.816 165.96 19.032 A 140.723 140.723 0 0 0 165.315 19.109 Q 164.124 19.254 163.699 19.331 A 4.109 4.109 0 0 0 163.632 19.344 Q 163.056 19.488 162.48 19.488 A 4.904 4.904 0 0 1 161.952 19.462 Q 160.896 19.347 160.896 18.72 Q 160.896 17.726 163.796 16.929 A 24.721 24.721 0 0 1 165.12 16.608 Q 166.255 16.352 168.339 16.193 A 63.105 63.105 0 0 1 169.728 16.104 Q 172.848 15.936 177.6 15.936 A 148.725 148.725 0 0 1 181.05 15.973 Q 186.221 16.094 188.352 16.608 A 1.498 1.498 0 0 1 188.499 16.631 Q 188.641 16.661 188.712 16.715 A 0.162 0.162 0 0 1 188.784 16.848 A 0.261 0.261 0 0 1 188.626 17.049 Q 188.164 17.328 186.362 17.529 A 36.953 36.953 0 0 1 185.472 17.616 L 183.12 17.808 A 51.293 51.293 0 0 1 182.508 17.87 Q 181.646 17.952 181.248 17.952 A 91.305 91.305 0 0 0 178.266 22.105 Q 175.126 26.718 171.114 33.481 A 405.757 405.757 0 0 0 168.576 37.824 Q 168.267 38.374 167.958 38.53 A 0.54 0.54 0 0 1 167.712 38.592 Q 167.328 38.592 167.328 37.968 Q 167.328 37.262 167.793 36.058 A 15.341 15.341 0 0 1 168.024 35.496 Q 168.492 34.416 169.23 32.978 A 81.683 81.683 0 0 1 170.016 31.488 Z M 2.904 31.488 A 8.84 8.84 0 0 0 4.393 32.657 Q 7.053 34.32 11.136 34.32 Q 13.536 34.32 16.176 33.672 Q 18.816 33.024 21.384 31.872 Q 23.952 30.72 26.208 29.232 Q 28.464 27.744 30.096 26.016 Q 30.312 25.801 30.439 25.577 A 1.326 1.326 0 0 0 30.624 24.912 A 0.997 0.997 0 0 0 30.616 24.778 Q 30.575 24.48 30.336 24.48 Q 30.03 24.48 29.45 25.029 A 7.899 7.899 0 0 0 29.136 25.344 Q 26.112 28.704 21.84 30.696 Q 17.568 32.688 13.008 32.688 A 15.792 15.792 0 0 1 10.78 32.537 A 12.086 12.086 0 0 1 7.56 31.632 Q 5.184 30.576 3.84 28.536 A 7.867 7.867 0 0 1 2.749 25.94 A 10.605 10.605 0 0 1 2.496 23.568 A 13.534 13.534 0 0 1 3.032 19.869 Q 4.132 15.988 7.488 11.76 Q 9.984 8.592 13.152 6.144 Q 16.32 3.696 19.944 2.304 Q 23.568 0.912 27.264 0.912 Q 28.743 0.912 29.985 1.208 A 7.917 7.917 0 0 1 32.64 2.352 A 4.609 4.609 0 0 1 34.546 5.126 A 7.241 7.241 0 0 1 34.752 6.912 Q 34.752 8.832 33.768 10.584 A 10.918 10.918 0 0 1 33.411 11.176 A 11.759 11.759 0 0 1 31.152 13.728 Q 29.52 15.12 27.576 15.936 A 11.444 11.444 0 0 1 26.833 16.219 A 9.641 9.641 0 0 1 23.712 16.752 A 7.341 7.341 0 0 1 22.312 16.625 A 5.291 5.291 0 0 1 20.112 15.672 A 4.57 4.57 0 0 1 19.678 15.304 A 3.088 3.088 0 0 1 18.672 13.008 Q 18.672 11.387 20.122 9.791 A 10.858 10.858 0 0 1 21.36 8.64 A 2.85 2.85 0 0 0 21.422 8.616 Q 22.128 8.332 22.128 7.872 Q 22.128 7.719 21.976 7.688 A 0.44 0.44 0 0 0 21.888 7.68 Q 21.635 7.68 21.247 7.924 A 4.038 4.038 0 0 0 20.976 8.112 Q 19.152 9.487 18.332 10.891 A 4.54 4.54 0 0 0 17.664 13.2 A 3.584 3.584 0 0 0 18.573 15.619 A 5.285 5.285 0 0 0 19.632 16.536 A 7.534 7.534 0 0 0 22.232 17.626 A 10.417 10.417 0 0 0 24.48 17.856 Q 26.688 17.856 28.848 17.04 Q 31.008 16.224 32.808 14.784 Q 34.608 13.344 35.688 11.4 Q 36.768 9.456 36.768 7.2 A 9.947 9.947 0 0 0 36.768 7.17 Q 36.765 6.213 36.578 5.393 A 5.554 5.554 0 0 0 35.472 3.072 A 6.861 6.861 0 0 0 33.941 1.694 A 8.417 8.417 0 0 0 31.968 0.744 A 13.607 13.607 0 0 0 29.782 0.21 A 17.351 17.351 0 0 0 27.024 0 A 22.194 22.194 0 0 0 24.957 0.097 A 25.256 25.256 0 0 0 19.944 1.104 Q 16.32 2.208 13.032 4.176 Q 9.744 6.144 7.2 8.832 Q 4.08 12.144 2.04 16.08 A 20.207 20.207 0 0 0 1.675 16.82 A 17.123 17.123 0 0 0 0 24.144 A 12.982 12.982 0 0 0 0.059 25.397 A 9.503 9.503 0 0 0 2.904 31.488 Z M 311.04 18.912 L 302.592 16.992 A 10.799 10.799 0 0 1 300.656 16.378 Q 299.447 15.856 298.557 15.06 A 6.789 6.789 0 0 1 298.44 14.952 A 5.422 5.422 0 0 1 297.463 13.752 A 4.144 4.144 0 0 1 296.88 11.616 A 5.211 5.211 0 0 1 297.569 9.096 Q 298.455 7.476 300.48 5.856 Q 302.304 4.368 304.752 3.336 Q 307.2 2.304 309.912 1.752 A 27.419 27.419 0 0 1 313.539 1.254 A 23.547 23.547 0 0 1 315.12 1.2 A 19.181 19.181 0 0 1 317.836 1.382 Q 319.318 1.595 320.569 2.054 A 10.994 10.994 0 0 1 321.192 2.304 A 7.153 7.153 0 0 1 322.642 3.137 Q 323.718 3.951 324.184 5.088 A 4.49 4.49 0 0 1 324.336 5.52 Q 324.48 6 324.48 6.576 A 4.474 4.474 0 0 1 324.126 8.397 Q 323.462 9.905 321.552 10.656 A 12.768 12.768 0 0 1 320.418 11.059 Q 319.357 11.376 318.528 11.376 Q 318.016 11.376 317.653 11.248 A 1.459 1.459 0 0 1 317.328 11.088 A 0.324 0.324 0 0 1 317.232 10.857 A 0.426 0.426 0 0 1 317.232 10.848 Q 317.232 10.512 318.576 10.464 A 17.117 17.117 0 0 0 319.103 10.425 Q 319.574 10.383 319.92 10.32 Q 320.337 10.244 320.574 10.168 A 1.703 1.703 0 0 0 320.688 10.128 A 3.99 3.99 0 0 0 321.65 9.439 A 2.896 2.896 0 0 0 322.512 7.296 A 3.941 3.941 0 0 0 322.345 6.186 A 5.464 5.464 0 0 0 321.984 5.28 Q 320.675 2.873 315.912 2.584 A 22.568 22.568 0 0 0 314.544 2.544 Q 312.384 2.544 310.08 3 Q 307.776 3.456 305.712 4.344 Q 303.648 5.232 302.208 6.576 Q 299.712 8.88 299.712 10.704 Q 299.712 12.096 301.08 13.176 Q 302.448 14.256 305.232 14.784 L 310.896 15.84 Q 314.16 16.464 316.176 17.688 Q 317.99 18.789 318.172 20.92 A 5.735 5.735 0 0 1 318.192 21.408 Q 318.192 23.616 317.088 25.536 Q 315.984 27.456 314.136 28.968 Q 312.288 30.48 309.936 31.488 A 26.556 26.556 0 0 1 303.733 33.323 Q 300.943 33.808 297.783 33.838 A 44.154 44.154 0 0 1 297.36 33.84 Q 296.448 33.84 295.536 33.792 Q 294.624 33.744 293.76 33.648 Q 294.273 33.941 294.995 34.234 A 17.288 17.288 0 0 0 295.464 34.416 A 18.831 18.831 0 0 0 296.537 34.777 Q 297.147 34.963 297.84 35.136 Q 297.973 35.181 297.983 35.308 A 0.268 0.268 0 0 1 297.984 35.328 Q 297.984 35.758 296.988 35.76 A 4.703 4.703 0 0 1 296.976 35.76 Q 295.278 35.76 292.865 34.009 A 20.227 20.227 0 0 1 292.08 33.408 A 23.928 23.928 0 0 1 290.502 33.099 Q 289.725 32.919 289.058 32.698 A 12.783 12.783 0 0 1 288.552 32.52 A 10.919 10.919 0 0 1 287.367 31.996 Q 286.766 31.683 286.283 31.32 A 6.412 6.412 0 0 1 286.128 31.2 A 8.947 8.947 0 0 1 284.758 29.71 A 12.242 12.242 0 0 1 283.776 28.128 A 9.584 9.584 0 0 1 283.087 26.476 A 6.977 6.977 0 0 1 282.768 24.432 Q 282.768 23.088 283.392 22.032 A 6.901 6.901 0 0 1 284.237 20.831 Q 285.436 19.488 287.04 19.488 A 1.584 1.584 0 0 1 288.49 20.384 Q 288.882 21.081 289.008 22.32 Q 289.344 24.96 289.56 26.52 A 51.037 51.037 0 0 0 289.651 27.151 Q 289.808 28.185 289.92 28.56 Q 290.64 30.912 292.368 32.544 A 19.352 19.352 0 0 0 295.019 32.915 A 23.655 23.655 0 0 0 296.736 32.976 Q 301.92 32.976 306.672 31.008 A 19.946 19.946 0 0 0 309.885 29.256 A 22.629 22.629 0 0 0 310.608 28.752 A 15.695 15.695 0 0 0 312.651 26.998 A 13.038 13.038 0 0 0 313.776 25.68 Q 314.774 24.337 314.974 23.055 A 4.139 4.139 0 0 0 315.024 22.416 Q 315.024 20.16 311.04 18.912 Z M 121.488 22.752 L 124.56 17.76 A 38.084 38.084 0 0 0 120.903 20.84 A 49.622 49.622 0 0 0 118.08 23.76 Q 117.216 24.72 116.136 26.016 Q 115.128 27.226 113.931 28.771 A 138.743 138.743 0 0 0 113.76 28.992 A 50.569 50.569 0 0 1 113.35 29.521 Q 112.269 30.894 111.861 31.176 A 0.33 0.33 0 0 1 111.696 31.248 Q 111.024 31.248 110.592 30.648 A 3.132 3.132 0 0 1 110.369 30.294 Q 110.16 29.902 110.16 29.568 A 2.11 2.11 0 0 1 110.173 29.353 Q 110.212 28.982 110.366 28.302 A 23.999 23.999 0 0 1 110.4 28.152 Q 110.619 27.211 110.918 26.489 A 7.488 7.488 0 0 1 110.976 26.352 Q 111.312 25.536 111.672 24.744 Q 112.032 23.952 112.368 23.184 L 109.488 26.208 L 108.912 26.784 A 3.566 3.566 0 0 1 108.711 26.971 Q 108.38 27.255 108.158 27.264 A 0.354 0.354 0 0 1 108.144 27.264 Q 107.94 27.264 107.91 27.022 A 0.746 0.746 0 0 1 107.904 26.928 A 0.359 0.359 0 0 1 107.911 26.863 Q 107.926 26.781 107.976 26.664 A 0.738 0.738 0 0 1 108.036 26.554 Q 108.108 26.443 108.236 26.309 A 3.116 3.116 0 0 1 108.288 26.256 Q 109.008 25.536 109.776 24.72 Q 110.544 23.904 111.36 22.848 Q 111.791 22.321 112.652 21.245 A 49.61 49.61 0 0 1 112.656 21.24 Q 113.52 20.16 114.552 18.912 Q 115.584 17.664 116.496 16.608 A 1.7 1.7 0 0 1 116.683 16.387 Q 116.844 16.227 117.024 16.152 A 4.123 4.123 0 0 1 117.141 16.105 Q 117.333 16.032 117.408 16.032 Q 118.611 16.032 118.697 16.901 A 1.41 1.41 0 0 1 118.704 17.04 A 1.226 1.226 0 0 1 118.62 17.481 A 1.505 1.505 0 0 1 118.56 17.616 Q 115.354 22.034 114.051 24.891 A 12.344 12.344 0 0 0 113.376 26.688 Q 118.944 21.12 122.328 18.312 A 32.685 32.685 0 0 1 123.692 17.235 Q 125.656 15.776 126.767 15.547 A 1.913 1.913 0 0 1 127.152 15.504 A 3.949 3.949 0 0 1 127.587 15.526 Q 128.037 15.576 128.318 15.739 A 1.159 1.159 0 0 1 128.328 15.744 Q 128.736 15.984 128.736 16.656 A 1.979 1.979 0 0 1 128.731 16.797 Q 128.726 16.868 128.716 16.928 A 0.788 0.788 0 0 1 128.688 17.04 A 1.519 1.519 0 0 1 128.579 17.231 Q 128.209 17.808 126.72 19.728 Q 125.652 21.029 124.83 22.105 A 59.962 59.962 0 0 0 124.776 22.176 Q 123.936 23.28 123.408 24.096 A 16.027 16.027 0 0 0 122.735 25.24 Q 122.355 25.955 122.112 26.616 A 9.127 9.127 0 0 0 121.871 27.366 Q 121.775 27.716 121.728 28.027 A 3.849 3.849 0 0 0 121.68 28.608 Q 121.68 28.859 121.733 29.19 A 6.405 6.405 0 0 0 121.776 29.424 A 0.756 0.756 0 0 0 121.851 29.64 Q 121.996 29.904 122.352 29.904 A 2.021 2.021 0 0 0 123.004 29.777 Q 123.96 29.445 125.477 28.25 A 24.417 24.417 0 0 0 125.808 27.984 Q 126.912 27.024 127.872 26.04 Q 128.832 25.056 129.696 24.096 Q 129.888 23.904 130.32 23.352 Q 130.689 22.881 130.813 22.812 A 0.077 0.077 0 0 1 130.848 22.8 A 0.153 0.153 0 0 1 130.991 22.895 Q 131.029 22.969 131.038 23.103 A 1.293 1.293 0 0 1 131.04 23.184 Q 131.04 23.362 130.854 23.767 A 5.763 5.763 0 0 1 130.824 23.832 Q 130.671 24.155 130.506 24.369 A 1.622 1.622 0 0 1 130.368 24.528 Q 129.84 25.152 128.808 26.256 A 36.198 36.198 0 0 1 127.424 27.655 A 43.774 43.774 0 0 1 126.504 28.512 Q 125.232 29.664 124.032 30.48 A 6.607 6.607 0 0 1 123.345 30.893 Q 122.561 31.296 121.92 31.296 Q 121.12 31.296 120.613 31.013 A 1.553 1.553 0 0 1 120.096 30.552 A 2.799 2.799 0 0 1 119.638 29.459 A 3.9 3.9 0 0 1 119.568 28.704 A 9.335 9.335 0 0 1 120.033 25.871 Q 120.393 24.738 121.031 23.55 A 17.773 17.773 0 0 1 121.488 22.752 Z M 365.328 22.752 L 368.4 17.76 A 38.084 38.084 0 0 0 364.743 20.84 A 49.622 49.622 0 0 0 361.92 23.76 Q 361.056 24.72 359.976 26.016 Q 358.968 27.226 357.771 28.771 A 138.743 138.743 0 0 0 357.6 28.992 A 50.569 50.569 0 0 1 357.19 29.521 Q 356.109 30.894 355.701 31.176 A 0.33 0.33 0 0 1 355.536 31.248 Q 354.864 31.248 354.432 30.648 A 3.132 3.132 0 0 1 354.209 30.294 Q 354 29.902 354 29.568 A 2.11 2.11 0 0 1 354.013 29.353 Q 354.052 28.982 354.206 28.302 A 23.999 23.999 0 0 1 354.24 28.152 Q 354.459 27.211 354.758 26.489 A 7.488 7.488 0 0 1 354.816 26.352 Q 355.152 25.536 355.512 24.744 Q 355.872 23.952 356.208 23.184 L 353.328 26.208 L 352.752 26.784 A 3.566 3.566 0 0 1 352.551 26.971 Q 352.22 27.255 351.998 27.264 A 0.354 0.354 0 0 1 351.984 27.264 Q 351.78 27.264 351.75 27.022 A 0.746 0.746 0 0 1 351.744 26.928 A 0.359 0.359 0 0 1 351.751 26.863 Q 351.766 26.781 351.816 26.664 A 0.738 0.738 0 0 1 351.876 26.554 Q 351.948 26.443 352.076 26.309 A 3.116 3.116 0 0 1 352.128 26.256 Q 352.848 25.536 353.616 24.72 Q 354.384 23.904 355.2 22.848 Q 355.631 22.321 356.492 21.245 A 49.61 49.61 0 0 1 356.496 21.24 Q 357.36 20.16 358.392 18.912 Q 359.424 17.664 360.336 16.608 A 1.7 1.7 0 0 1 360.523 16.387 Q 360.684 16.227 360.864 16.152 A 4.123 4.123 0 0 1 360.981 16.105 Q 361.173 16.032 361.248 16.032 Q 362.451 16.032 362.537 16.901 A 1.41 1.41 0 0 1 362.544 17.04 A 1.226 1.226 0 0 1 362.46 17.481 A 1.505 1.505 0 0 1 362.4 17.616 Q 359.194 22.034 357.891 24.891 A 12.344 12.344 0 0 0 357.216 26.688 Q 362.784 21.12 366.168 18.312 A 32.685 32.685 0 0 1 367.532 17.235 Q 369.496 15.776 370.607 15.547 A 1.913 1.913 0 0 1 370.992 15.504 A 3.949 3.949 0 0 1 371.427 15.526 Q 371.877 15.576 372.158 15.739 A 1.159 1.159 0 0 1 372.168 15.744 Q 372.576 15.984 372.576 16.656 A 1.979 1.979 0 0 1 372.571 16.797 Q 372.566 16.868 372.556 16.928 A 0.788 0.788 0 0 1 372.528 17.04 A 1.519 1.519 0 0 1 372.419 17.231 Q 372.049 17.808 370.56 19.728 Q 369.492 21.029 368.67 22.105 A 59.962 59.962 0 0 0 368.616 22.176 Q 367.776 23.28 367.248 24.096 A 16.027 16.027 0 0 0 366.575 25.24 Q 366.195 25.955 365.952 26.616 A 9.127 9.127 0 0 0 365.711 27.366 Q 365.615 27.716 365.568 28.027 A 3.849 3.849 0 0 0 365.52 28.608 Q 365.52 28.859 365.573 29.19 A 6.405 6.405 0 0 0 365.616 29.424 A 0.756 0.756 0 0 0 365.691 29.64 Q 365.836 29.904 366.192 29.904 A 2.021 2.021 0 0 0 366.844 29.777 Q 367.8 29.445 369.317 28.25 A 24.417 24.417 0 0 0 369.648 27.984 Q 370.752 27.024 371.712 26.04 Q 372.672 25.056 373.536 24.096 Q 373.728 23.904 374.16 23.352 Q 374.529 22.881 374.653 22.812 A 0.077 0.077 0 0 1 374.688 22.8 A 0.153 0.153 0 0 1 374.831 22.895 Q 374.869 22.969 374.878 23.103 A 1.293 1.293 0 0 1 374.88 23.184 Q 374.88 23.362 374.694 23.767 A 5.763 5.763 0 0 1 374.664 23.832 Q 374.511 24.155 374.346 24.369 A 1.622 1.622 0 0 1 374.208 24.528 Q 373.68 25.152 372.648 26.256 A 36.198 36.198 0 0 1 371.264 27.655 A 43.774 43.774 0 0 1 370.344 28.512 Q 369.072 29.664 367.872 30.48 A 6.607 6.607 0 0 1 367.185 30.893 Q 366.401 31.296 365.76 31.296 Q 364.96 31.296 364.453 31.013 A 1.553 1.553 0 0 1 363.936 30.552 A 2.799 2.799 0 0 1 363.478 29.459 A 3.9 3.9 0 0 1 363.408 28.704 A 9.335 9.335 0 0 1 363.873 25.871 Q 364.233 24.738 364.871 23.55 A 17.773 17.773 0 0 1 365.328 22.752 Z M 415.536 25.392 L 422.16 17.616 A 5.133 5.133 0 0 1 422.994 16.834 Q 423.621 16.374 424.301 16.236 A 2.978 2.978 0 0 1 424.896 16.176 A 2.069 2.069 0 0 1 425.299 16.212 Q 426 16.352 426 17.04 Q 426 17.376 425.712 17.664 Q 424.842 18.489 423.6 19.969 A 56.091 56.091 0 0 0 423.48 20.112 A 44.513 44.513 0 0 0 421.225 23.068 A 49.443 49.443 0 0 0 420.912 23.52 Q 419.664 25.344 418.824 27 A 12.077 12.077 0 0 0 418.418 27.88 Q 418.057 28.761 417.996 29.41 A 2.723 2.723 0 0 0 417.984 29.664 A 1.917 1.917 0 0 0 418.006 29.969 Q 418.097 30.528 418.56 30.528 Q 418.815 30.528 419.291 30.376 A 8.149 8.149 0 0 0 419.616 30.264 A 4.403 4.403 0 0 0 420.059 30.07 Q 420.529 29.836 421.145 29.427 A 19.209 19.209 0 0 0 421.536 29.16 Q 422.736 28.32 424.416 26.544 Q 424.685 26.275 425.795 24.997 A 231.894 231.894 0 0 0 425.952 24.816 Q 426.908 23.714 428.369 21.88 A 217.122 217.122 0 0 0 429.312 20.688 Q 432.873 16.259 434.089 16.043 A 0.679 0.679 0 0 1 434.208 16.032 A 2.872 2.872 0 0 1 434.832 16.094 Q 435.725 16.294 435.905 17.134 A 1.957 1.957 0 0 1 435.936 17.328 A 0.19 0.19 0 0 1 435.94 17.369 Q 435.94 17.864 433.92 20.16 Q 431.184 23.472 430.176 24.912 Q 428.738 27.013 428.405 28.407 A 3.356 3.356 0 0 0 428.304 29.184 Q 428.304 30.24 429.024 30.24 A 2.002 2.002 0 0 0 429.534 30.167 Q 430.11 30.014 430.872 29.544 Q 432 28.848 433.248 27.768 Q 434.496 26.688 435.672 25.512 A 46.653 46.653 0 0 0 436.738 24.412 Q 437.233 23.883 437.656 23.393 A 27.964 27.964 0 0 0 437.712 23.328 Q 437.883 23.129 438.053 23.048 A 0.543 0.543 0 0 1 438.288 22.992 Q 438.517 22.992 438.564 23.173 A 0.424 0.424 0 0 1 438.576 23.28 A 0.571 0.571 0 0 1 438.572 23.342 Q 438.566 23.402 438.547 23.487 A 2.797 2.797 0 0 1 438.528 23.568 A 0.584 0.584 0 0 1 438.472 23.706 Q 438.405 23.829 438.271 23.969 A 2.154 2.154 0 0 1 438.24 24 Q 437.472 24.864 436.272 26.136 Q 435.072 27.408 433.68 28.656 Q 432.288 29.904 430.992 30.72 A 7.793 7.793 0 0 1 430.293 31.115 Q 429.516 31.499 428.903 31.533 A 2.125 2.125 0 0 1 428.784 31.536 A 3.415 3.415 0 0 1 427.692 31.367 A 3 3 0 0 1 426.864 30.936 A 1.907 1.907 0 0 1 426.062 29.553 A 2.517 2.517 0 0 1 426.048 29.28 A 7.084 7.084 0 0 1 426.322 27.355 A 8.03 8.03 0 0 1 426.384 27.144 A 47.916 47.916 0 0 0 426.616 26.378 Q 426.704 26.077 426.778 25.807 A 23.738 23.738 0 0 0 426.912 25.296 A 51.393 51.393 0 0 1 425.556 26.824 Q 424.124 28.371 422.952 29.328 Q 421.376 30.616 420.272 31.144 A 5.763 5.763 0 0 1 420.096 31.224 Q 419.099 31.66 418.461 31.719 A 2.069 2.069 0 0 1 418.272 31.728 Q 416.112 31.728 416.112 28.992 Q 416.112 27.936 416.76 26.472 A 13.944 13.944 0 0 1 417.517 25.014 Q 417.989 24.218 418.608 23.376 L 417.744 24.192 A 23.454 23.454 0 0 0 417.062 24.865 Q 416.69 25.247 416.28 25.695 A 47.01 47.01 0 0 0 415.776 26.256 A 0.648 0.648 0 0 1 415.314 26.448 A 0.849 0.849 0 0 1 415.296 26.448 Q 415.123 26.448 415.106 26.253 A 0.517 0.517 0 0 1 415.104 26.208 A 0.452 0.452 0 0 1 415.13 26.07 Q 415.2 25.858 415.455 25.502 A 6.447 6.447 0 0 1 415.536 25.392 Z M 203.064 30.067 A 2.14 2.14 0 0 0 205.104 31.248 A 6.094 6.094 0 0 0 207.146 30.889 A 7.952 7.952 0 0 0 208.824 30.048 A 13.686 13.686 0 0 0 210.227 29.001 A 16.384 16.384 0 0 0 212.256 26.928 A 18.853 18.853 0 0 0 212.735 26.323 A 16.476 16.476 0 0 0 214.752 22.896 A 9.972 9.972 0 0 0 215.441 24.268 Q 215.857 24.947 216.332 25.405 A 3.107 3.107 0 0 0 218.544 26.352 A 3.059 3.059 0 0 0 219.704 26.121 Q 220.256 25.896 220.792 25.454 A 6.778 6.778 0 0 0 221.664 24.576 Q 222.048 24.048 222.048 23.76 Q 222.029 23.626 221.979 23.546 A 0.242 0.242 0 0 0 221.76 23.424 A 0.543 0.543 0 0 0 221.525 23.48 Q 221.355 23.561 221.184 23.76 Q 219.792 25.296 218.736 25.296 A 1.806 1.806 0 0 1 217.426 24.735 A 3.047 3.047 0 0 1 216.984 24.168 A 7.471 7.471 0 0 1 216.517 23.291 A 5.732 5.732 0 0 1 216.096 21.936 Q 216.288 21.12 216.648 19.92 Q 217.008 18.72 217.008 17.52 A 3.933 3.933 0 0 0 217.008 17.503 Q 217.007 17.243 216.971 17.012 A 2.38 2.38 0 0 0 216.84 16.512 A 0.956 0.956 0 0 0 216.82 16.464 Q 216.644 16.077 216.192 16.032 A 3.268 3.268 0 0 0 216.047 16.013 Q 214.146 15.801 213.814 18.143 A 7.919 7.919 0 0 0 213.744 19.248 A 11.929 11.929 0 0 0 213.758 19.836 Q 213.785 20.377 213.862 20.846 A 5.889 5.889 0 0 0 214.08 21.744 A 6.544 6.544 0 0 1 213.897 22.308 Q 213.738 22.735 213.504 23.206 A 14.279 14.279 0 0 1 212.976 24.168 Q 212.16 25.536 211.008 26.832 A 15.433 15.433 0 0 1 210.131 27.743 A 12.582 12.582 0 0 1 208.608 28.992 A 6.646 6.646 0 0 1 208.204 29.252 Q 207.763 29.512 207.341 29.66 A 3.266 3.266 0 0 1 206.256 29.856 A 0.998 0.998 0 0 1 205.509 29.536 A 1.567 1.567 0 0 1 205.272 29.208 Q 204.912 28.56 204.912 27.936 A 3.239 3.239 0 0 1 204.937 27.544 Q 205.144 25.853 207.051 22.904 A 42.706 42.706 0 0 1 208.416 20.928 Q 209.664 19.248 211.296 17.328 Q 212.928 15.408 214.944 13.2 A 1521.235 1521.235 0 0 1 215.276 12.841 Q 217.995 9.901 218.383 9.514 A 0.413 0.413 0 0 1 218.447 9.456 A 1.032 1.032 0 0 0 218.221 8.793 A 1.361 1.361 0 0 0 217.92 8.52 A 2.357 2.357 0 0 0 217.729 8.402 A 1.869 1.869 0 0 0 216.816 8.16 A 3.021 3.021 0 0 0 215.607 8.447 Q 212.772 9.695 208.128 16.368 A 95.225 95.225 0 0 0 206.784 18.353 Q 203.697 23.046 202.866 25.716 A 5.84 5.84 0 0 0 202.56 27.408 Q 202.56 29.118 203.064 30.067 Z M 56.208 15.552 L 58.992 15.552 Q 59.856 14.448 60.768 13.2 A 16.13 16.13 0 0 1 61.347 12.509 Q 62.244 11.501 62.832 11.28 L 62.976 11.28 Q 63.246 11.28 63.702 11.497 A 5.284 5.284 0 0 1 63.936 11.616 Q 64.486 11.925 64.642 12.234 A 0.54 0.54 0 0 1 64.704 12.48 Q 64.704 13.104 62.4 15.696 Q 62.731 15.733 63.287 15.741 A 23.384 23.384 0 0 0 63.648 15.744 L 65.664 15.744 L 67.32 15.744 Q 68.4 15.744 69.576 15.72 Q 70.752 15.696 71.616 15.672 Q 72.431 15.649 72.563 15.648 A 1.398 1.398 0 0 1 72.576 15.648 Q 72.644 15.671 72.679 15.704 A 0.117 0.117 0 0 1 72.72 15.792 Q 72.72 16.224 67.056 16.944 Q 64.594 17.275 63.018 17.493 A 382.905 382.905 0 0 0 62.136 17.616 Q 60.516 17.844 60.306 17.899 A 0.287 0.287 0 0 0 60.288 17.904 A 5.099 5.099 0 0 0 59.887 18.293 Q 59.473 18.736 58.971 19.426 A 22.251 22.251 0 0 0 58.656 19.872 A 34.346 34.346 0 0 0 57.576 21.544 A 43.389 43.389 0 0 0 56.736 22.992 A 35.93 35.93 0 0 0 55.755 24.883 A 28.365 28.365 0 0 0 55.128 26.28 Q 54.599 27.554 54.502 28.363 A 2.87 2.87 0 0 0 54.48 28.704 A 1.67 1.67 0 0 0 54.643 29.446 A 1.685 1.685 0 0 0 55.056 29.976 A 1.702 1.702 0 0 0 55.589 30.283 Q 56.118 30.48 56.928 30.48 Q 57.792 30.48 58.992 30.096 A 19.332 19.332 0 0 0 61.204 29.24 A 17.851 17.851 0 0 0 61.272 29.208 Q 62.312 28.723 62.795 28.438 A 5.394 5.394 0 0 0 62.832 28.416 A 18.134 18.134 0 0 0 63.932 27.678 Q 64.497 27.271 65.107 26.776 A 33.895 33.895 0 0 0 65.592 26.376 Q 67.104 25.104 68.592 23.472 A 8.36 8.36 0 0 1 68.829 23.244 Q 69.309 22.8 69.504 22.8 A 0.151 0.151 0 0 1 69.57 22.814 Q 69.648 22.851 69.648 22.992 Q 69.648 23.344 69.045 24.097 A 9.353 9.353 0 0 1 68.928 24.24 Q 67.776 25.632 66.36 26.904 A 21.196 21.196 0 0 1 63.457 29.083 A 23.449 23.449 0 0 1 63.216 29.232 A 18.71 18.71 0 0 1 61.349 30.237 A 13.697 13.697 0 0 1 59.448 30.96 A 13.949 13.949 0 0 1 57.766 31.348 A 10.299 10.299 0 0 1 56.112 31.488 A 5.127 5.127 0 0 1 55.133 31.4 Q 54.567 31.29 54.122 31.042 A 2.78 2.78 0 0 1 53.688 30.744 A 2.12 2.12 0 0 1 53.105 29.926 Q 52.819 29.25 52.801 28.219 A 8.028 8.028 0 0 1 52.8 28.08 Q 52.8 27.023 53.416 25.416 A 16.112 16.112 0 0 1 53.472 25.272 Q 54.144 23.568 55.152 21.6 Q 56.16 19.632 57.168 17.712 Q 56.648 17.832 56.228 17.852 A 3.45 3.45 0 0 1 56.064 17.856 A 2.754 2.754 0 0 1 55.538 17.811 Q 54.694 17.646 54.629 16.883 A 1.546 1.546 0 0 1 54.624 16.752 A 1.088 1.088 0 0 1 54.684 16.383 A 0.92 0.92 0 0 1 55.032 15.936 A 2.632 2.632 0 0 1 55.301 15.768 Q 55.441 15.693 55.572 15.649 A 1.175 1.175 0 0 1 55.776 15.6 L 55.896 15.6 A 0.788 0.788 0 0 0 55.978 15.595 Q 56.076 15.585 56.208 15.552 Z M 322.56 15.552 L 325.344 15.552 Q 326.208 14.448 327.12 13.2 A 16.13 16.13 0 0 1 327.699 12.509 Q 328.596 11.501 329.184 11.28 L 329.328 11.28 Q 329.598 11.28 330.054 11.497 A 5.284 5.284 0 0 1 330.288 11.616 Q 330.838 11.925 330.994 12.234 A 0.54 0.54 0 0 1 331.056 12.48 Q 331.056 13.104 328.752 15.696 Q 329.083 15.733 329.639 15.741 A 23.384 23.384 0 0 0 330 15.744 L 332.016 15.744 L 333.672 15.744 Q 334.752 15.744 335.928 15.72 Q 337.104 15.696 337.968 15.672 Q 338.783 15.649 338.915 15.648 A 1.398 1.398 0 0 1 338.928 15.648 Q 338.996 15.671 339.031 15.704 A 0.117 0.117 0 0 1 339.072 15.792 Q 339.072 16.224 333.408 16.944 Q 330.946 17.275 329.37 17.493 A 382.905 382.905 0 0 0 328.488 17.616 Q 326.868 17.844 326.658 17.899 A 0.287 0.287 0 0 0 326.64 17.904 A 5.099 5.099 0 0 0 326.239 18.293 Q 325.825 18.736 325.323 19.426 A 22.251 22.251 0 0 0 325.008 19.872 A 34.346 34.346 0 0 0 323.928 21.544 A 43.389 43.389 0 0 0 323.088 22.992 A 35.93 35.93 0 0 0 322.107 24.883 A 28.365 28.365 0 0 0 321.48 26.28 Q 320.951 27.554 320.854 28.363 A 2.87 2.87 0 0 0 320.832 28.704 A 1.67 1.67 0 0 0 320.995 29.446 A 1.685 1.685 0 0 0 321.408 29.976 A 1.702 1.702 0 0 0 321.941 30.283 Q 322.47 30.48 323.28 30.48 Q 324.144 30.48 325.344 30.096 A 19.332 19.332 0 0 0 327.556 29.24 A 17.851 17.851 0 0 0 327.624 29.208 Q 328.664 28.723 329.147 28.438 A 5.394 5.394 0 0 0 329.184 28.416 A 18.134 18.134 0 0 0 330.284 27.678 Q 330.849 27.271 331.459 26.776 A 33.895 33.895 0 0 0 331.944 26.376 Q 333.456 25.104 334.944 23.472 A 8.36 8.36 0 0 1 335.181 23.244 Q 335.661 22.8 335.856 22.8 A 0.151 0.151 0 0 1 335.922 22.814 Q 336 22.851 336 22.992 Q 336 23.344 335.397 24.097 A 9.353 9.353 0 0 1 335.28 24.24 Q 334.128 25.632 332.712 26.904 A 21.196 21.196 0 0 1 329.809 29.083 A 23.449 23.449 0 0 1 329.568 29.232 A 18.71 18.71 0 0 1 327.701 30.237 A 13.697 13.697 0 0 1 325.8 30.96 A 13.949 13.949 0 0 1 324.118 31.348 A 10.299 10.299 0 0 1 322.464 31.488 A 5.127 5.127 0 0 1 321.485 31.4 Q 320.919 31.29 320.474 31.042 A 2.78 2.78 0 0 1 320.04 30.744 A 2.12 2.12 0 0 1 319.457 29.926 Q 319.171 29.25 319.153 28.219 A 8.028 8.028 0 0 1 319.152 28.08 Q 319.152 27.023 319.768 25.416 A 16.112 16.112 0 0 1 319.824 25.272 Q 320.496 23.568 321.504 21.6 Q 322.512 19.632 323.52 17.712 Q 323 17.832 322.58 17.852 A 3.45 3.45 0 0 1 322.416 17.856 A 2.754 2.754 0 0 1 321.89 17.811 Q 321.046 17.646 320.981 16.883 A 1.546 1.546 0 0 1 320.976 16.752 A 1.088 1.088 0 0 1 321.036 16.383 A 0.92 0.92 0 0 1 321.384 15.936 A 2.632 2.632 0 0 1 321.653 15.768 Q 321.793 15.693 321.924 15.649 A 1.175 1.175 0 0 1 322.128 15.6 L 322.248 15.6 A 0.788 0.788 0 0 0 322.33 15.595 Q 322.428 15.585 322.56 15.552 Z M 227.328 17.424 L 223.776 22.032 A 68.294 68.294 0 0 1 222.868 23.193 Q 221.198 25.277 220.552 25.648 A 0.498 0.498 0 0 1 220.32 25.728 A 0.44 0.44 0 0 1 220.232 25.72 Q 220.08 25.689 220.08 25.536 A 0.648 0.648 0 0 1 220.103 25.372 Q 220.155 25.176 220.32 24.912 A 1.755 1.755 0 0 1 220.424 24.735 Q 220.586 24.489 220.896 24.144 Q 222.72 22.032 224.256 19.968 A 31.776 31.776 0 0 0 225.817 17.677 A 25.303 25.303 0 0 0 226.8 15.936 Q 227.747 12.355 229.117 11.845 A 1.328 1.328 0 0 1 229.584 11.76 A 1.752 1.752 0 0 1 230.007 11.807 Q 230.688 11.977 230.688 12.768 A 1.924 1.924 0 0 1 230.577 13.377 Q 230.392 13.927 229.901 14.623 A 10.618 10.618 0 0 1 229.488 15.168 Q 228.446 16.514 228.347 16.682 A 0.07 0.07 0 0 0 228.336 16.704 A 0.942 0.942 0 0 0 228.471 17.219 Q 228.708 17.593 229.364 17.683 A 3.389 3.389 0 0 0 229.824 17.712 A 2.864 2.864 0 0 0 230.617 17.593 Q 231.15 17.439 231.744 17.088 L 232.992 16.32 A 0.358 0.358 0 0 1 233.061 16.295 Q 233.136 16.275 233.244 16.273 A 1.428 1.428 0 0 1 233.28 16.272 A 1.272 1.272 0 0 1 234.149 16.614 A 1.778 1.778 0 0 1 234.288 16.752 Q 234.72 17.232 234.576 17.616 L 231.264 21.792 Q 228.192 25.728 228.192 28.128 A 3.194 3.194 0 0 0 228.293 28.97 Q 228.654 30.288 230.304 30.288 Q 231.744 30.288 233.4 29.424 A 18.669 18.669 0 0 0 236.126 27.676 A 21.053 21.053 0 0 0 236.616 27.288 A 26.412 26.412 0 0 0 237.968 26.111 Q 238.583 25.536 239.09 24.976 A 15.824 15.824 0 0 0 239.232 24.816 L 240.384 23.472 L 240.624 23.232 A 0.959 0.959 0 0 1 240.689 23.173 Q 240.756 23.117 240.81 23.098 A 0.164 0.164 0 0 1 240.864 23.088 A 0.484 0.484 0 0 1 240.997 23.105 Q 241.146 23.147 241.186 23.3 A 0.495 0.495 0 0 1 241.2 23.424 A 0.323 0.323 0 0 1 241.194 23.48 Q 241.178 23.57 241.117 23.726 A 3.487 3.487 0 0 1 241.104 23.76 A 1.443 1.443 0 0 1 241.007 23.955 Q 240.951 24.051 240.874 24.154 A 3.106 3.106 0 0 1 240.768 24.288 L 239.232 26.016 Q 238.132 27.259 236.533 28.526 A 27.559 27.559 0 0 1 236.52 28.536 Q 234.912 29.808 233.208 30.624 Q 231.504 31.44 230.112 31.44 A 6.15 6.15 0 0 1 229.12 31.366 Q 227.847 31.157 227.28 30.36 Q 226.637 29.455 226.532 28.029 A 7.847 7.847 0 0 1 226.512 27.456 Q 226.512 25.991 227.171 24.121 A 19.131 19.131 0 0 1 227.76 22.656 A 19.619 19.619 0 0 1 228.315 21.482 A 15.588 15.588 0 0 1 228.768 20.664 A 18.926 18.926 0 0 1 229.693 19.251 A 16.973 16.973 0 0 1 229.872 19.008 Q 229.721 19.046 229.6 19.054 A 0.962 0.962 0 0 1 229.536 19.056 L 229.248 19.056 A 1.611 1.611 0 0 1 228.147 18.609 Q 227.894 18.382 227.668 18.039 A 4.946 4.946 0 0 1 227.328 17.424 Z M 43.728 26.064 L 40.752 28.944 A 16.853 16.853 0 0 1 39.938 29.709 Q 39.504 30.089 39.102 30.377 A 6.935 6.935 0 0 1 38.328 30.864 A 7.57 7.57 0 0 1 37.753 31.143 Q 37.175 31.39 36.743 31.432 A 1.753 1.753 0 0 1 36.576 31.44 A 3.518 3.518 0 0 1 35.172 31.137 A 4.97 4.97 0 0 1 34.272 30.624 A 3.911 3.911 0 0 1 33.625 30.058 Q 33.219 29.608 33.06 29.089 A 2.332 2.332 0 0 1 32.976 28.704 Q 32.496 25.008 37.632 19.92 Q 42.72 14.832 46.8 14.832 A 3.722 3.722 0 0 1 47.488 14.892 Q 47.879 14.965 48.187 15.13 A 1.934 1.934 0 0 1 48.528 15.36 A 1.775 1.775 0 0 1 48.838 15.785 Q 48.939 15.975 49.012 16.205 A 3.068 3.068 0 0 1 49.032 16.272 A 6.032 6.032 0 0 0 49.088 16.453 Q 49.217 16.848 49.296 16.848 A 0.867 0.867 0 0 0 49.465 16.832 A 0.658 0.658 0 0 0 49.632 16.776 A 0.671 0.671 0 0 1 49.828 16.715 A 0.892 0.892 0 0 1 49.968 16.704 A 1.374 1.374 0 0 1 50.948 17.109 A 1.803 1.803 0 0 1 50.976 17.136 A 2.92 2.92 0 0 1 51.178 17.359 Q 51.421 17.657 51.456 17.904 Q 51.498 17.988 49.132 21.537 A 552.417 552.417 0 0 1 48.384 22.656 Q 45.297 27.168 45.546 28.813 A 1.453 1.453 0 0 0 45.552 28.848 A 2.418 2.418 0 0 0 45.685 29.278 Q 45.971 29.952 46.608 29.952 A 2.917 2.917 0 0 0 47.951 29.528 Q 50.517 28.13 55.39 22.115 A 111.34 111.34 0 0 0 55.728 21.696 Q 55.858 21.522 55.989 21.506 A 0.217 0.217 0 0 1 56.016 21.504 Q 56.22 21.504 56.25 21.746 A 0.746 0.746 0 0 1 56.256 21.84 Q 56.256 22.178 55.923 22.663 A 4.048 4.048 0 0 1 55.824 22.8 A 61.644 61.644 0 0 1 53.464 25.796 Q 49.978 29.926 47.622 30.783 A 3.396 3.396 0 0 1 46.464 31.008 A 2.305 2.305 0 0 1 45.65 30.865 A 1.443 1.443 0 0 1 45.648 30.864 Q 43.869 30.177 43.588 28.399 A 4.513 4.513 0 0 1 43.536 27.696 Q 43.536 26.88 43.728 26.064 Z M 77.76 26.064 L 74.784 28.944 A 16.853 16.853 0 0 1 73.97 29.709 Q 73.536 30.089 73.134 30.377 A 6.935 6.935 0 0 1 72.36 30.864 A 7.57 7.57 0 0 1 71.785 31.143 Q 71.207 31.39 70.775 31.432 A 1.753 1.753 0 0 1 70.608 31.44 A 3.518 3.518 0 0 1 69.204 31.137 A 4.97 4.97 0 0 1 68.304 30.624 A 3.911 3.911 0 0 1 67.657 30.058 Q 67.251 29.608 67.092 29.089 A 2.332 2.332 0 0 1 67.008 28.704 Q 66.528 25.008 71.664 19.92 Q 76.752 14.832 80.832 14.832 A 3.722 3.722 0 0 1 81.52 14.892 Q 81.911 14.965 82.219 15.13 A 1.934 1.934 0 0 1 82.56 15.36 A 1.775 1.775 0 0 1 82.87 15.785 Q 82.971 15.975 83.044 16.205 A 3.068 3.068 0 0 1 83.064 16.272 A 6.032 6.032 0 0 0 83.12 16.453 Q 83.249 16.848 83.328 16.848 A 0.867 0.867 0 0 0 83.497 16.832 A 0.658 0.658 0 0 0 83.664 16.776 A 0.671 0.671 0 0 1 83.86 16.715 A 0.892 0.892 0 0 1 84 16.704 A 1.374 1.374 0 0 1 84.98 17.109 A 1.803 1.803 0 0 1 85.008 17.136 A 2.92 2.92 0 0 1 85.21 17.359 Q 85.453 17.657 85.488 17.904 Q 85.53 17.988 83.164 21.537 A 552.417 552.417 0 0 1 82.416 22.656 Q 79.329 27.168 79.578 28.813 A 1.453 1.453 0 0 0 79.584 28.848 A 2.418 2.418 0 0 0 79.717 29.278 Q 80.003 29.952 80.64 29.952 A 2.917 2.917 0 0 0 81.983 29.528 Q 84.549 28.13 89.422 22.115 A 111.34 111.34 0 0 0 89.76 21.696 Q 89.89 21.522 90.021 21.506 A 0.217 0.217 0 0 1 90.048 21.504 Q 90.252 21.504 90.282 21.746 A 0.746 0.746 0 0 1 90.288 21.84 Q 90.288 22.178 89.955 22.663 A 4.048 4.048 0 0 1 89.856 22.8 A 61.644 61.644 0 0 1 87.496 25.796 Q 84.01 29.926 81.654 30.783 A 3.396 3.396 0 0 1 80.496 31.008 A 2.305 2.305 0 0 1 79.682 30.865 A 1.443 1.443 0 0 1 79.68 30.864 Q 77.901 30.177 77.62 28.399 A 4.513 4.513 0 0 1 77.568 27.696 Q 77.568 26.88 77.76 26.064 Z M 193.392 26.064 L 190.416 28.944 A 16.853 16.853 0 0 1 189.602 29.709 Q 189.168 30.089 188.766 30.377 A 6.935 6.935 0 0 1 187.992 30.864 A 7.57 7.57 0 0 1 187.417 31.143 Q 186.839 31.39 186.407 31.432 A 1.753 1.753 0 0 1 186.24 31.44 A 3.518 3.518 0 0 1 184.836 31.137 A 4.97 4.97 0 0 1 183.936 30.624 A 3.911 3.911 0 0 1 183.289 30.058 Q 182.883 29.608 182.724 29.089 A 2.332 2.332 0 0 1 182.64 28.704 Q 182.16 25.008 187.296 19.92 Q 192.384 14.832 196.464 14.832 A 3.722 3.722 0 0 1 197.152 14.892 Q 197.543 14.965 197.851 15.13 A 1.934 1.934 0 0 1 198.192 15.36 A 1.775 1.775 0 0 1 198.502 15.785 Q 198.603 15.975 198.676 16.205 A 3.068 3.068 0 0 1 198.696 16.272 A 6.032 6.032 0 0 0 198.752 16.453 Q 198.881 16.848 198.96 16.848 A 0.867 0.867 0 0 0 199.129 16.832 A 0.658 0.658 0 0 0 199.296 16.776 A 0.671 0.671 0 0 1 199.492 16.715 A 0.892 0.892 0 0 1 199.632 16.704 A 1.374 1.374 0 0 1 200.612 17.109 A 1.803 1.803 0 0 1 200.64 17.136 A 2.92 2.92 0 0 1 200.842 17.359 Q 201.085 17.657 201.12 17.904 Q 201.162 17.988 198.796 21.537 A 552.417 552.417 0 0 1 198.048 22.656 Q 194.961 27.168 195.21 28.813 A 1.453 1.453 0 0 0 195.216 28.848 A 2.418 2.418 0 0 0 195.349 29.278 Q 195.635 29.952 196.272 29.952 A 2.917 2.917 0 0 0 197.615 29.528 Q 200.181 28.13 205.054 22.115 A 111.34 111.34 0 0 0 205.392 21.696 Q 205.522 21.522 205.653 21.506 A 0.217 0.217 0 0 1 205.68 21.504 Q 205.884 21.504 205.914 21.746 A 0.746 0.746 0 0 1 205.92 21.84 Q 205.92 22.178 205.587 22.663 A 4.048 4.048 0 0 1 205.488 22.8 A 61.644 61.644 0 0 1 203.128 25.796 Q 199.642 29.926 197.286 30.783 A 3.396 3.396 0 0 1 196.128 31.008 A 2.305 2.305 0 0 1 195.314 30.865 A 1.443 1.443 0 0 1 195.312 30.864 Q 193.533 30.177 193.252 28.399 A 4.513 4.513 0 0 1 193.2 27.696 Q 193.2 26.88 193.392 26.064 Z M 344.112 26.064 L 341.136 28.944 A 16.853 16.853 0 0 1 340.322 29.709 Q 339.888 30.089 339.486 30.377 A 6.935 6.935 0 0 1 338.712 30.864 A 7.57 7.57 0 0 1 338.137 31.143 Q 337.559 31.39 337.127 31.432 A 1.753 1.753 0 0 1 336.96 31.44 A 3.518 3.518 0 0 1 335.556 31.137 A 4.97 4.97 0 0 1 334.656 30.624 A 3.911 3.911 0 0 1 334.009 30.058 Q 333.603 29.608 333.444 29.089 A 2.332 2.332 0 0 1 333.36 28.704 Q 332.88 25.008 338.016 19.92 Q 343.104 14.832 347.184 14.832 A 3.722 3.722 0 0 1 347.872 14.892 Q 348.263 14.965 348.571 15.13 A 1.934 1.934 0 0 1 348.912 15.36 A 1.775 1.775 0 0 1 349.222 15.785 Q 349.323 15.975 349.396 16.205 A 3.068 3.068 0 0 1 349.416 16.272 A 6.032 6.032 0 0 0 349.472 16.453 Q 349.601 16.848 349.68 16.848 A 0.867 0.867 0 0 0 349.849 16.832 A 0.658 0.658 0 0 0 350.016 16.776 A 0.671 0.671 0 0 1 350.212 16.715 A 0.892 0.892 0 0 1 350.352 16.704 A 1.374 1.374 0 0 1 351.332 17.109 A 1.803 1.803 0 0 1 351.36 17.136 A 2.92 2.92 0 0 1 351.562 17.359 Q 351.805 17.657 351.84 17.904 Q 351.882 17.988 349.516 21.537 A 552.417 552.417 0 0 1 348.768 22.656 Q 345.681 27.168 345.93 28.813 A 1.453 1.453 0 0 0 345.936 28.848 A 2.418 2.418 0 0 0 346.069 29.278 Q 346.355 29.952 346.992 29.952 A 2.917 2.917 0 0 0 348.335 29.528 Q 350.901 28.13 355.774 22.115 A 111.34 111.34 0 0 0 356.112 21.696 Q 356.242 21.522 356.373 21.506 A 0.217 0.217 0 0 1 356.4 21.504 Q 356.604 21.504 356.634 21.746 A 0.746 0.746 0 0 1 356.64 21.84 Q 356.64 22.178 356.307 22.663 A 4.048 4.048 0 0 1 356.208 22.8 A 61.644 61.644 0 0 1 353.848 25.796 Q 350.362 29.926 348.006 30.783 A 3.396 3.396 0 0 1 346.848 31.008 A 2.305 2.305 0 0 1 346.034 30.865 A 1.443 1.443 0 0 1 346.032 30.864 Q 344.253 30.177 343.972 28.399 A 4.513 4.513 0 0 1 343.92 27.696 Q 343.92 26.88 344.112 26.064 Z M 406.896 22.848 L 405.024 25.584 A 2.477 2.477 0 0 0 404.862 25.872 Q 404.704 26.198 404.538 26.706 A 13.496 13.496 0 0 0 404.424 27.072 Q 404.178 27.906 404.126 28.411 A 2.419 2.419 0 0 0 404.112 28.656 Q 404.112 29.616 404.76 30.24 Q 405.408 30.864 406.416 30.864 A 5.09 5.09 0 0 0 407.976 30.589 Q 409.435 30.116 411.295 28.829 A 28.115 28.115 0 0 0 412.752 27.744 A 34.371 34.371 0 0 0 415.285 25.551 Q 416.76 24.135 417.84 22.704 Q 418.08 22.416 418.416 22.416 Q 418.63 22.416 418.708 22.494 A 0.155 0.155 0 0 1 418.752 22.608 Q 418.752 22.742 418.546 23.04 A 3.761 3.761 0 0 1 418.512 23.088 Q 415.872 26.592 412.32 29.136 Q 408.528 31.824 406.08 31.824 Q 404.544 31.824 403.296 30.84 A 3.125 3.125 0 0 1 402.063 28.573 A 4.009 4.009 0 0 1 402.048 28.224 Q 402.048 25.115 405.525 21.206 A 28.672 28.672 0 0 1 406.224 20.448 Q 409.774 16.778 412.695 16.158 A 5.583 5.583 0 0 1 413.856 16.032 A 3.579 3.579 0 0 1 414.607 16.106 Q 415.095 16.211 415.465 16.464 A 2.109 2.109 0 0 1 415.68 16.632 A 2.049 2.049 0 0 1 416.16 17.247 A 1.879 1.879 0 0 1 416.352 18.096 Q 416.352 19.296 415.776 20.304 A 2.838 2.838 0 0 1 415.306 20.956 A 1.955 1.955 0 0 1 413.856 21.552 Q 412.608 21.552 412.608 20.784 A 1.351 1.351 0 0 1 412.655 20.456 Q 412.738 20.128 412.97 19.674 A 8.864 8.864 0 0 1 413.232 19.2 Q 413.845 18.193 413.899 18.065 A 0.056 0.056 0 0 0 413.904 18.048 Q 413.904 17.968 413.805 17.955 A 0.332 0.332 0 0 0 413.76 17.952 Q 412.725 18.063 411.065 19.169 A 20.864 20.864 0 0 0 410.016 19.92 Q 408.994 20.71 408.219 21.41 A 21.825 21.825 0 0 0 408.168 21.456 A 11.153 11.153 0 0 0 407.535 22.077 Q 407.235 22.396 407.001 22.706 A 6.296 6.296 0 0 0 406.896 22.848 Z M 101.808 8.448 L 98.448 12.96 Q 96.48 15.6 94.896 17.832 A 145.371 145.371 0 0 0 93.593 19.698 Q 92.808 20.841 92.16 21.84 A 433.076 433.076 0 0 0 91.588 22.748 Q 91.289 23.224 90.959 23.752 A 714.895 714.895 0 0 0 90.864 23.904 Q 90.144 25.056 89.592 26.28 A 6.155 6.155 0 0 0 89.084 28.052 A 5.636 5.636 0 0 0 89.04 28.752 Q 89.04 29.328 89.376 29.784 A 1.002 1.002 0 0 0 89.825 30.119 Q 90.131 30.24 90.576 30.24 A 3.909 3.909 0 0 0 91.63 30.078 Q 92.611 29.802 93.866 29.052 A 18.48 18.48 0 0 0 94.608 28.584 A 19.534 19.534 0 0 0 97.015 26.681 Q 98.13 25.656 99.236 24.372 A 33.355 33.355 0 0 0 99.552 24 Q 99.792 23.712 100.08 23.472 Q 100.309 23.281 100.478 23.242 A 0.365 0.365 0 0 1 100.56 23.232 A 0.283 0.283 0 0 1 100.664 23.25 Q 100.8 23.303 100.8 23.52 A 0.25 0.25 0 0 1 100.783 23.601 Q 100.738 23.729 100.57 23.962 A 5.092 5.092 0 0 1 100.488 24.072 Q 100.176 24.48 99.984 24.72 L 98.832 26.016 A 35.662 35.662 0 0 1 97.853 27.048 Q 97.253 27.657 96.552 28.32 A 15.778 15.778 0 0 1 94.143 30.203 A 14.432 14.432 0 0 1 93.768 30.432 Q 92.304 31.296 90.816 31.296 Q 89.424 31.296 88.224 30.6 A 2.307 2.307 0 0 1 87.077 28.919 A 3.723 3.723 0 0 1 87.024 28.272 Q 87.024 26.677 87.828 24.65 A 19.679 19.679 0 0 1 88.632 22.896 A 93.255 93.255 0 0 1 90.82 18.902 A 110.979 110.979 0 0 1 92.304 16.416 Q 97.744 7.583 100.121 7.305 A 1.302 1.302 0 0 1 100.272 7.296 A 1.428 1.428 0 0 1 100.804 7.404 Q 101.028 7.493 101.256 7.656 A 1.873 1.873 0 0 1 101.515 7.876 Q 101.774 8.144 101.808 8.448 Z M 277.056 8.448 L 273.696 12.96 Q 271.728 15.6 270.144 17.832 A 145.371 145.371 0 0 0 268.841 19.698 Q 268.056 20.841 267.408 21.84 A 433.076 433.076 0 0 0 266.836 22.748 Q 266.537 23.224 266.207 23.752 A 714.895 714.895 0 0 0 266.112 23.904 Q 265.392 25.056 264.84 26.28 A 6.155 6.155 0 0 0 264.332 28.052 A 5.636 5.636 0 0 0 264.288 28.752 Q 264.288 29.328 264.624 29.784 A 1.002 1.002 0 0 0 265.073 30.119 Q 265.379 30.24 265.824 30.24 A 3.909 3.909 0 0 0 266.878 30.078 Q 267.859 29.802 269.114 29.052 A 18.48 18.48 0 0 0 269.856 28.584 A 19.534 19.534 0 0 0 272.263 26.681 Q 273.378 25.656 274.484 24.372 A 33.355 33.355 0 0 0 274.8 24 Q 275.04 23.712 275.328 23.472 Q 275.557 23.281 275.726 23.242 A 0.365 0.365 0 0 1 275.808 23.232 A 0.283 0.283 0 0 1 275.912 23.25 Q 276.048 23.303 276.048 23.52 A 0.25 0.25 0 0 1 276.031 23.601 Q 275.986 23.729 275.818 23.962 A 5.092 5.092 0 0 1 275.736 24.072 Q 275.424 24.48 275.232 24.72 L 274.08 26.016 A 35.662 35.662 0 0 1 273.101 27.048 Q 272.501 27.657 271.8 28.32 A 15.778 15.778 0 0 1 269.391 30.203 A 14.432 14.432 0 0 1 269.016 30.432 Q 267.552 31.296 266.064 31.296 Q 264.672 31.296 263.472 30.6 A 2.307 2.307 0 0 1 262.325 28.919 A 3.723 3.723 0 0 1 262.272 28.272 Q 262.272 26.677 263.076 24.65 A 19.679 19.679 0 0 1 263.88 22.896 A 93.255 93.255 0 0 1 266.068 18.902 A 110.979 110.979 0 0 1 267.552 16.416 Q 272.992 7.583 275.369 7.305 A 1.302 1.302 0 0 1 275.52 7.296 A 1.428 1.428 0 0 1 276.052 7.404 Q 276.276 7.493 276.504 7.656 A 1.873 1.873 0 0 1 276.763 7.876 Q 277.022 8.144 277.056 8.448 Z M 252.528 31.824 Q 250.992 31.824 249.744 30.84 A 3.125 3.125 0 0 1 248.511 28.573 A 4.009 4.009 0 0 1 248.496 28.224 Q 248.496 25.115 251.973 21.206 A 28.672 28.672 0 0 1 252.672 20.448 Q 256.222 16.778 259.143 16.158 A 5.583 5.583 0 0 1 260.304 16.032 A 3.318 3.318 0 0 1 261.104 16.124 A 2.386 2.386 0 0 1 262.104 16.632 Q 262.8 17.232 262.8 18.096 Q 262.8 20.499 259.386 22.825 A 19.346 19.346 0 0 1 258.528 23.376 A 23.557 23.557 0 0 1 256.49 24.49 Q 254.007 25.68 252.144 25.68 Q 251.76 25.68 251.472 25.584 Q 250.752 26.88 250.752 28.32 Q 250.752 30.443 252.454 30.76 A 3.553 3.553 0 0 0 253.104 30.816 Q 255.504 30.816 259.296 27.6 Q 262.224 25.248 264.288 22.608 A 3.021 3.021 0 0 1 264.472 22.384 Q 264.674 22.163 264.852 22.081 A 0.487 0.487 0 0 1 265.056 22.032 Q 265.285 22.032 265.332 22.213 A 0.424 0.424 0 0 1 265.344 22.32 Q 265.344 22.608 264.96 23.136 Q 263.616 24.912 262.08 26.4 Q 260.544 27.888 258.768 29.136 A 22.141 22.141 0 0 1 256.833 30.405 Q 254.376 31.824 252.528 31.824 Z M 375.312 31.824 Q 373.776 31.824 372.528 30.84 A 3.125 3.125 0 0 1 371.295 28.573 A 4.009 4.009 0 0 1 371.28 28.224 Q 371.28 25.115 374.757 21.206 A 28.672 28.672 0 0 1 375.456 20.448 Q 379.006 16.778 381.927 16.158 A 5.583 5.583 0 0 1 383.088 16.032 A 3.318 3.318 0 0 1 383.888 16.124 A 2.386 2.386 0 0 1 384.888 16.632 Q 385.584 17.232 385.584 18.096 Q 385.584 20.499 382.17 22.825 A 19.346 19.346 0 0 1 381.312 23.376 A 23.557 23.557 0 0 1 379.274 24.49 Q 376.791 25.68 374.928 25.68 Q 374.544 25.68 374.256 25.584 Q 373.536 26.88 373.536 28.32 Q 373.536 30.443 375.238 30.76 A 3.553 3.553 0 0 0 375.888 30.816 Q 378.288 30.816 382.08 27.6 Q 385.008 25.248 387.072 22.608 A 3.021 3.021 0 0 1 387.256 22.384 Q 387.458 22.163 387.636 22.081 A 0.487 0.487 0 0 1 387.84 22.032 Q 388.069 22.032 388.116 22.213 A 0.424 0.424 0 0 1 388.128 22.32 Q 388.128 22.608 387.744 23.136 Q 386.4 24.912 384.864 26.4 Q 383.328 27.888 381.552 29.136 A 22.141 22.141 0 0 1 379.617 30.405 Q 377.16 31.824 375.312 31.824 Z M 389.808 19.968 L 395.856 14.304 Q 397.104 13.104 397.848 12.48 Q 398.522 11.915 398.861 11.862 A 0.432 0.432 0 0 1 398.928 11.856 Q 400.464 11.856 400.464 13.008 Q 400.464 13.547 399.917 14.255 A 5.115 5.115 0 0 1 399.84 14.352 Q 399.36 14.928 399.144 15.24 A 18.594 18.594 0 0 1 399.069 15.348 Q 398.939 15.532 398.893 15.586 A 0.261 0.261 0 0 1 398.88 15.6 A 6.98 6.98 0 0 0 398.431 16.557 Q 397.825 18.108 397.296 20.928 Q 396.794 23.619 396.423 25.4 A 108.399 108.399 0 0 1 396.384 25.584 Q 396 27.408 395.76 28.224 Q 397.776 28.176 399.744 26.976 Q 401.712 25.776 403.968 23.04 L 404.256 22.752 Q 404.384 22.624 404.513 22.581 A 0.402 0.402 0 0 1 404.64 22.56 A 0.505 0.505 0 0 1 404.747 22.57 Q 404.928 22.61 404.928 22.8 Q 404.928 23.04 404.784 23.28 A 5.593 5.593 0 0 1 404.622 23.535 A 4.438 4.438 0 0 1 404.496 23.712 A 33.764 33.764 0 0 1 403.319 25.048 Q 402.743 25.666 402.2 26.175 A 17.834 17.834 0 0 1 401.712 26.616 A 11.498 11.498 0 0 1 399.731 28.014 A 10.236 10.236 0 0 1 398.976 28.392 A 14.361 14.361 0 0 1 397.51 28.952 Q 396.614 29.243 395.568 29.472 L 394.032 30.48 A 3.83 3.83 0 0 1 393.158 30.926 A 4.895 4.895 0 0 1 392.544 31.104 Q 391.68 31.296 390.72 31.296 A 5.414 5.414 0 0 1 389.425 31.151 A 3.452 3.452 0 0 1 387.384 29.808 Q 386.304 28.32 385.632 25.68 A 9.921 9.921 0 0 1 385.327 25.974 Q 384.85 26.411 384.579 26.513 A 0.424 0.424 0 0 1 384.432 26.544 A 0.2 0.2 0 0 1 384.241 26.429 Q 384.197 26.344 384.193 26.194 A 1.147 1.147 0 0 1 384.192 26.16 A 0.682 0.682 0 0 1 384.321 25.763 A 0.972 0.972 0 0 1 384.432 25.632 L 385.656 24.144 Q 386.88 22.656 389.808 19.968 Z M 99.663 31.58 A 2.628 2.628 0 0 0 100.56 31.728 A 7.017 7.017 0 0 0 104.112 30.792 Q 105.744 29.856 107.136 28.512 Q 108.528 27.168 109.68 26.016 Q 110.64 25.056 111.192 24.336 A 8.982 8.982 0 0 0 111.376 24.088 Q 111.645 23.71 111.718 23.504 A 0.4 0.4 0 0 0 111.744 23.376 A 0.665 0.665 0 0 0 111.738 23.286 Q 111.721 23.162 111.653 23.116 A 0.176 0.176 0 0 0 111.552 23.088 Q 111.456 23.088 111.096 23.328 A 1.708 1.708 0 0 0 110.998 23.399 Q 110.672 23.651 110.256 24.192 Q 109.488 25.152 108.264 26.304 Q 107.04 27.456 105.696 28.464 Q 104.352 29.472 103.128 30.12 Q 102.287 30.566 101.661 30.705 A 2.429 2.429 0 0 1 101.136 30.768 A 1.671 1.671 0 0 1 100.956 30.759 Q 100.161 30.672 99.986 29.793 A 2.884 2.884 0 0 1 99.936 29.232 Q 99.936 27.633 102.313 24.26 A 46.419 46.419 0 0 1 103.536 22.608 L 107.184 17.904 A 0.588 0.588 0 0 0 107.176 17.809 Q 107.131 17.535 106.826 17.291 A 2.14 2.14 0 0 0 106.56 17.112 Q 105.936 16.752 105.504 16.752 Q 104.127 16.79 102.14 19.572 A 28.055 28.055 0 0 0 101.088 21.168 Q 100.416 22.224 99.72 23.568 A 22.127 22.127 0 0 0 99.467 24.071 A 19.552 19.552 0 0 0 98.568 26.232 A 10.843 10.843 0 0 0 98.415 26.71 Q 98.112 27.739 98.112 28.56 A 8.255 8.255 0 0 0 98.119 28.909 Q 98.157 29.808 98.398 30.392 A 1.928 1.928 0 0 0 98.808 31.032 A 2.303 2.303 0 0 0 99.663 31.58 Z M 240.063 31.58 A 2.628 2.628 0 0 0 240.96 31.728 A 7.017 7.017 0 0 0 244.512 30.792 Q 246.144 29.856 247.536 28.512 Q 248.928 27.168 250.08 26.016 Q 251.04 25.056 251.592 24.336 A 8.982 8.982 0 0 0 251.776 24.088 Q 252.045 23.71 252.118 23.504 A 0.4 0.4 0 0 0 252.144 23.376 A 0.665 0.665 0 0 0 252.138 23.286 Q 252.121 23.162 252.053 23.116 A 0.176 0.176 0 0 0 251.952 23.088 Q 251.856 23.088 251.496 23.328 A 1.708 1.708 0 0 0 251.398 23.399 Q 251.072 23.651 250.656 24.192 Q 249.888 25.152 248.664 26.304 Q 247.44 27.456 246.096 28.464 Q 244.752 29.472 243.528 30.12 Q 242.687 30.566 242.061 30.705 A 2.429 2.429 0 0 1 241.536 30.768 A 1.671 1.671 0 0 1 241.356 30.759 Q 240.561 30.672 240.386 29.793 A 2.884 2.884 0 0 1 240.336 29.232 Q 240.336 27.633 242.713 24.26 A 46.419 46.419 0 0 1 243.936 22.608 L 247.584 17.904 A 0.588 0.588 0 0 0 247.576 17.809 Q 247.531 17.535 247.226 17.291 A 2.14 2.14 0 0 0 246.96 17.112 Q 246.336 16.752 245.904 16.752 Q 244.527 16.79 242.54 19.572 A 28.055 28.055 0 0 0 241.488 21.168 Q 240.816 22.224 240.12 23.568 A 22.127 22.127 0 0 0 239.867 24.071 A 19.552 19.552 0 0 0 238.968 26.232 A 10.843 10.843 0 0 0 238.815 26.71 Q 238.512 27.739 238.512 28.56 A 8.255 8.255 0 0 0 238.519 28.909 Q 238.557 29.808 238.798 30.392 A 1.928 1.928 0 0 0 239.208 31.032 A 2.303 2.303 0 0 0 240.063 31.58 Z M 43.728 24.288 L 48.816 17.28 A 1.261 1.261 0 0 0 47.911 16.638 A 1.877 1.877 0 0 0 47.568 16.608 A 5.227 5.227 0 0 0 45.703 17.001 Q 43.197 17.968 39.648 21.312 A 29.883 29.883 0 0 0 37.815 23.152 Q 34.943 26.319 34.943 28.641 A 3.537 3.537 0 0 0 34.992 29.232 Q 35.228 30.367 36.116 30.384 A 1.419 1.419 0 0 0 36.144 30.384 A 3.787 3.787 0 0 0 37.817 29.928 Q 40.005 28.835 43.059 25.12 A 50.625 50.625 0 0 0 43.728 24.288 Z M 77.76 24.288 L 82.848 17.28 A 1.261 1.261 0 0 0 81.943 16.638 A 1.877 1.877 0 0 0 81.6 16.608 A 5.227 5.227 0 0 0 79.735 17.001 Q 77.229 17.968 73.68 21.312 A 29.883 29.883 0 0 0 71.847 23.152 Q 68.975 26.319 68.975 28.641 A 3.537 3.537 0 0 0 69.024 29.232 Q 69.26 30.367 70.148 30.384 A 1.419 1.419 0 0 0 70.176 30.384 A 3.787 3.787 0 0 0 71.849 29.928 Q 74.037 28.835 77.091 25.12 A 50.625 50.625 0 0 0 77.76 24.288 Z M 193.392 24.288 L 198.48 17.28 A 1.261 1.261 0 0 0 197.575 16.638 A 1.877 1.877 0 0 0 197.232 16.608 A 5.227 5.227 0 0 0 195.367 17.001 Q 192.861 17.968 189.312 21.312 A 29.883 29.883 0 0 0 187.479 23.152 Q 184.607 26.319 184.607 28.641 A 3.537 3.537 0 0 0 184.656 29.232 Q 184.892 30.367 185.78 30.384 A 1.419 1.419 0 0 0 185.808 30.384 A 3.787 3.787 0 0 0 187.481 29.928 Q 189.669 28.835 192.723 25.12 A 50.625 50.625 0 0 0 193.392 24.288 Z M 344.112 24.288 L 349.2 17.28 A 1.261 1.261 0 0 0 348.295 16.638 A 1.877 1.877 0 0 0 347.952 16.608 A 5.227 5.227 0 0 0 346.087 17.001 Q 343.581 17.968 340.032 21.312 A 29.883 29.883 0 0 0 338.199 23.152 Q 335.327 26.319 335.327 28.641 A 3.537 3.537 0 0 0 335.376 29.232 Q 335.612 30.367 336.5 30.384 A 1.419 1.419 0 0 0 336.528 30.384 A 3.787 3.787 0 0 0 338.201 29.928 Q 340.389 28.835 343.443 25.12 A 50.625 50.625 0 0 0 344.112 24.288 Z M 396.144 17.04 L 396.336 15.408 Q 395.232 16.224 393.552 17.76 Q 391.872 19.296 390.24 20.976 A 41.855 41.855 0 0 0 389.517 21.738 Q 388.492 22.848 388.128 23.448 A 8.556 8.556 0 0 0 387.918 23.813 Q 387.638 24.332 387.6 24.621 A 0.835 0.835 0 0 0 387.6 24.624 A 5.535 5.535 0 0 0 387.573 25.084 Q 387.546 26.686 388.536 27.696 Q 389.664 28.848 391.296 28.848 Q 392.395 28.848 393.113 28.325 A 2.467 2.467 0 0 0 393.12 28.32 Q 393.647 28.033 394.15 26.717 A 10.536 10.536 0 0 0 394.152 26.712 Q 394.499 25.805 394.834 24.591 A 40.01 40.01 0 0 0 395.136 23.424 A 36.881 36.881 0 0 0 395.708 20.337 A 33.724 33.724 0 0 0 395.736 20.136 Q 395.952 18.528 396.144 17.04 Z M 48.385 12.685 A 3.773 3.773 0 0 0 49.2 12.768 A 4.771 4.771 0 0 0 49.747 12.736 Q 51.131 12.577 52.632 11.616 A 9.943 9.943 0 0 0 53.037 11.343 Q 53.868 10.751 54.673 9.931 A 17.585 17.585 0 0 0 56.112 8.256 Q 56.406 7.851 56.475 7.644 A 0.353 0.353 0 0 0 56.496 7.536 Q 56.496 7.248 56.016 7.512 Q 55.536 7.776 55.152 8.16 A 15.225 15.225 0 0 1 54.353 8.93 Q 53.848 9.38 53.367 9.715 A 6.673 6.673 0 0 1 52.368 10.296 A 8.433 8.433 0 0 1 52.126 10.404 Q 50.968 10.896 49.968 10.896 A 3.161 3.161 0 0 1 49.419 10.851 Q 48.466 10.683 48.059 9.886 A 2.712 2.712 0 0 1 47.808 9.072 Q 47.76 8.784 47.688 8.472 Q 47.616 8.16 47.232 8.16 A 0.572 0.572 0 0 0 46.852 8.291 Q 46.674 8.44 46.584 8.76 A 4.875 4.875 0 0 0 46.536 8.947 A 4.267 4.267 0 0 0 46.416 9.936 A 3.811 3.811 0 0 0 46.503 10.773 A 2.584 2.584 0 0 0 47.136 12 A 2.211 2.211 0 0 0 47.433 12.265 Q 47.837 12.564 48.385 12.685 Z M 82.417 12.685 A 3.773 3.773 0 0 0 83.232 12.768 A 4.771 4.771 0 0 0 83.779 12.736 Q 85.163 12.577 86.664 11.616 A 9.943 9.943 0 0 0 87.069 11.343 Q 87.9 10.751 88.705 9.931 A 17.585 17.585 0 0 0 90.144 8.256 Q 90.438 7.851 90.507 7.644 A 0.353 0.353 0 0 0 90.528 7.536 Q 90.528 7.248 90.048 7.512 Q 89.568 7.776 89.184 8.16 A 15.225 15.225 0 0 1 88.385 8.93 Q 87.88 9.38 87.399 9.715 A 6.673 6.673 0 0 1 86.4 10.296 A 8.433 8.433 0 0 1 86.158 10.404 Q 85 10.896 84 10.896 A 3.161 3.161 0 0 1 83.451 10.851 Q 82.498 10.683 82.091 9.886 A 2.712 2.712 0 0 1 81.84 9.072 Q 81.792 8.784 81.72 8.472 Q 81.648 8.16 81.264 8.16 A 0.572 0.572 0 0 0 80.884 8.291 Q 80.706 8.44 80.616 8.76 A 4.875 4.875 0 0 0 80.568 8.947 A 4.267 4.267 0 0 0 80.448 9.936 A 3.811 3.811 0 0 0 80.535 10.773 A 2.584 2.584 0 0 0 81.168 12 A 2.211 2.211 0 0 0 81.465 12.265 Q 81.869 12.564 82.417 12.685 Z M 348.769 12.685 A 3.773 3.773 0 0 0 349.584 12.768 A 4.771 4.771 0 0 0 350.131 12.736 Q 351.515 12.577 353.016 11.616 A 9.943 9.943 0 0 0 353.421 11.343 Q 354.252 10.751 355.057 9.931 A 17.585 17.585 0 0 0 356.496 8.256 Q 356.79 7.851 356.859 7.644 A 0.353 0.353 0 0 0 356.88 7.536 Q 356.88 7.248 356.4 7.512 Q 355.92 7.776 355.536 8.16 A 15.225 15.225 0 0 1 354.737 8.93 Q 354.232 9.38 353.751 9.715 A 6.673 6.673 0 0 1 352.752 10.296 A 8.433 8.433 0 0 1 352.51 10.404 Q 351.352 10.896 350.352 10.896 A 3.161 3.161 0 0 1 349.803 10.851 Q 348.85 10.683 348.443 9.886 A 2.712 2.712 0 0 1 348.192 9.072 Q 348.144 8.784 348.072 8.472 Q 348 8.16 347.616 8.16 A 0.572 0.572 0 0 0 347.236 8.291 Q 347.058 8.44 346.968 8.76 A 4.875 4.875 0 0 0 346.92 8.947 A 4.267 4.267 0 0 0 346.8 9.936 A 3.811 3.811 0 0 0 346.887 10.773 A 2.584 2.584 0 0 0 347.52 12 A 2.211 2.211 0 0 0 347.817 12.265 Q 348.221 12.564 348.769 12.685 Z M 289.308 30.326 A 13.296 13.296 0 0 0 290.64 32.064 A 12.167 12.167 0 0 1 290.518 32.024 Q 288.396 31.307 287.136 30 Q 284.544 27.312 284.544 23.664 A 8.831 8.831 0 0 1 284.567 23.001 Q 284.667 21.683 285.192 21.216 A 4.727 4.727 0 0 1 285.455 20.998 Q 285.748 20.773 285.976 20.69 A 0.727 0.727 0 0 1 286.224 20.64 A 0.19 0.19 0 0 1 286.348 20.693 Q 286.645 20.951 286.919 22.451 A 24.403 24.403 0 0 1 287.04 23.184 A 34.145 34.145 0 0 0 287.222 24.272 Q 287.736 27.07 288.624 29.088 A 10.911 10.911 0 0 0 289.308 30.326 Z M 131.616 18.72 L 132.864 18.72 Q 133.918 18.672 135.546 18.72 A 62.18 62.18 0 0 1 135.552 18.72 Q 138 18.768 139.8 18.744 Q 141.41 18.723 142.463 18.644 A 20.486 20.486 0 0 0 142.704 18.624 A 0.322 0.322 0 0 1 142.737 18.762 Q 142.737 19.501 138.96 20.16 L 136.272 20.544 Q 134.928 20.736 133.584 20.976 Q 133.2 21.072 132.672 21.048 A 10.206 10.206 0 0 1 132.182 21.013 Q 131.933 20.99 131.658 20.954 A 17.26 17.26 0 0 1 131.472 20.928 A 5.283 5.283 0 0 1 130.95 20.805 Q 130.418 20.648 130.165 20.411 A 0.655 0.655 0 0 1 129.936 19.92 Q 129.936 19.414 130.332 19.107 A 1.293 1.293 0 0 1 130.368 19.08 A 2.314 2.314 0 0 1 130.616 18.922 Q 130.747 18.851 130.868 18.813 A 0.887 0.887 0 0 1 131.136 18.768 L 131.304 18.768 A 0.788 0.788 0 0 0 131.386 18.763 Q 131.484 18.753 131.616 18.72 Z M 252.816 24.624 A 4.938 4.938 0 0 0 254.064 24.446 Q 255.223 24.141 256.697 23.316 A 21.694 21.694 0 0 0 257.568 22.8 A 19.838 19.838 0 0 0 259.226 21.499 A 22.106 22.106 0 0 0 259.464 21.288 Q 260.4 20.448 261 19.584 A 4.631 4.631 0 0 0 261.31 19.075 Q 261.446 18.813 261.518 18.571 A 1.829 1.829 0 0 0 261.6 18.048 A 0.519 0.519 0 0 0 261.299 17.552 Q 261.049 17.424 260.592 17.424 Q 259.152 17.424 256.56 19.584 Q 255.312 20.64 254.16 21.888 Q 253.008 23.136 252.192 24.528 Q 252.48 24.624 252.816 24.624 Z M 375.6 24.624 A 4.938 4.938 0 0 0 376.848 24.446 Q 378.007 24.141 379.481 23.316 A 21.694 21.694 0 0 0 380.352 22.8 A 19.838 19.838 0 0 0 382.01 21.499 A 22.106 22.106 0 0 0 382.248 21.288 Q 383.184 20.448 383.784 19.584 A 4.631 4.631 0 0 0 384.094 19.075 Q 384.23 18.813 384.302 18.571 A 1.829 1.829 0 0 0 384.384 18.048 A 0.519 0.519 0 0 0 384.083 17.552 Q 383.833 17.424 383.376 17.424 Q 381.936 17.424 379.344 19.584 Q 378.096 20.64 376.944 21.888 Q 375.792 23.136 374.976 24.528 Q 375.264 24.624 375.6 24.624 Z M 109.44 14.688 Q 108.624 14.688 108.024 14.16 A 2.029 2.029 0 0 1 107.673 13.767 A 1.424 1.424 0 0 1 107.424 12.96 A 1.382 1.382 0 0 1 107.558 12.329 Q 107.85 11.752 108.776 11.642 A 4.005 4.005 0 0 1 109.248 11.616 A 2.14 2.14 0 0 1 110.099 11.799 A 2.964 2.964 0 0 1 110.592 12.072 Q 111.264 12.528 111.264 13.2 A 1.067 1.067 0 0 1 111.038 13.85 Q 110.889 14.05 110.64 14.232 Q 110.155 14.586 109.699 14.665 A 1.516 1.516 0 0 1 109.44 14.688 Z M 249.84 14.688 Q 249.024 14.688 248.424 14.16 A 2.029 2.029 0 0 1 248.073 13.767 A 1.424 1.424 0 0 1 247.824 12.96 A 1.382 1.382 0 0 1 247.958 12.329 Q 248.25 11.752 249.176 11.642 A 4.005 4.005 0 0 1 249.648 11.616 A 2.14 2.14 0 0 1 250.499 11.799 A 2.964 2.964 0 0 1 250.992 12.072 Q 251.664 12.528 251.664 13.2 A 1.067 1.067 0 0 1 251.438 13.85 Q 251.289 14.05 251.04 14.232 Q 250.555 14.586 250.099 14.665 A 1.516 1.516 0 0 1 249.84 14.688 Z" vector-effect="non-scaling-stroke"/></g></svg>